<?xml version="1.0" standalone="no"?>
<!DOCTYPE svg PUBLIC "-//W3C//DTD SVG 20010904//EN"
 "http://www.w3.org/TR/2001/REC-SVG-20010904/DTD/svg10.dtd">
<svg version="1.0" xmlns="http://www.w3.org/2000/svg"
 width="300.000000pt" height="300.000000pt" viewBox="0 0 300.000000 300.000000"
 preserveAspectRatio="xMidYMid meet">
<metadata>
Created by potrace 1.10, written by Peter Selinger 2001-2011
</metadata>
<g transform="translate(0.000000,300.000000) scale(0.100000,-0.100000)"
fill="#000000" stroke="none">
<path d="M1195 2715 c-44 -43 -26 -124 31 -146 82 -31 146 91 79 149 -35 29
-79 29 -110 -3z m89 -21 c23 -23 20 -70 -5 -88 -48 -33 -99 28 -65 78 19 29
47 33 70 10z"/>
<path d="M1785 2685 c0 -46 3 -55 18 -55 14 0 17 9 17 55 0 46 -3 55 -17 55
-15 0 -18 -9 -18 -55z"/>
<path d="M1376 2676 c-34 -33 -33 -69 0 -95 33 -26 58 -27 84 -1 38 38 21 103
-32 115 -21 5 -33 1 -52 -19z m68 -28 c13 -21 -2 -51 -27 -56 -23 -5 -40 33
-27 59 13 23 38 22 54 -3z"/>
<path d="M1509 2699 c0 -2 -1 -44 -2 -94 -1 -77 1 -90 16 -93 13 -3 17 4 17
32 0 35 1 35 26 24 24 -11 29 -9 50 15 31 36 30 62 -1 92 -26 27 -45 31 -63
13 -8 -8 -15 -8 -27 2 -8 7 -15 11 -16 9z m75 -35 c18 -7 22 -59 6 -69 -6 -3
-19 -3 -30 0 -23 7 -28 60 -7 68 6 3 13 6 14 6 1 1 8 -2 17 -5z"/>
<path d="M1670 2680 c-25 -25 -17 -46 26 -60 48 -16 44 -34 -6 -26 -46 7 -55
-9 -14 -24 35 -14 50 -12 68 6 26 25 18 45 -24 61 -44 18 -43 38 1 29 35 -7
41 18 7 28 -33 9 -36 8 -58 -14z"/>
<path d="M2442 2583 c-2 -39 0 -43 21 -42 16 1 17 3 5 6 -11 3 -18 17 -21 41
l-4 37 -1 -42z"/>
<path d="M1782 2583 c5 -26 38 -29 38 -4 0 15 -6 21 -21 21 -14 0 -19 -5 -17
-17z"/>
<path d="M2093 2512 c-13 -2 -23 -10 -23 -18 0 -8 -4 -14 -10 -14 -15 0 -7
-42 11 -60 32 -34 85 -8 84 41 0 31 -31 56 -62 51z m32 -52 c0 -8 -10 -16 -22
-18 -22 -3 -32 16 -16 32 12 11 38 2 38 -14z"/>
<path d="M1934 2490 c-30 -12 -62 -56 -70 -96 -5 -29 -10 -34 -33 -34 -29 0
-71 -25 -71 -42 0 -6 10 -2 23 10 13 13 36 22 53 22 25 0 31 -5 39 -32 7 -23
17 -34 33 -36 31 -5 29 31 -3 56 -38 30 -34 75 10 119 33 33 39 35 82 30 28
-3 40 -1 32 4 -17 11 -67 10 -95 -1z m-14 -185 c0 -21 -17 -18 -30 4 -15 28
-13 33 10 21 11 -6 20 -17 20 -25z"/>
<path d="M1417 2446 c-97 -36 -163 -112 -192 -221 -48 -185 38 -375 189 -420
149 -45 289 25 346 171 36 90 34 218 -3 299 -32 69 -85 128 -142 157 -50 26
-147 33 -198 14z m167 -41 c55 -23 111 -79 137 -138 20 -43 24 -69 24 -147 0
-84 -3 -101 -27 -147 -54 -102 -120 -143 -227 -143 -88 0 -171 58 -213 149
-25 54 -31 200 -10 267 16 53 80 126 134 152 52 25 131 28 182 7z"/>
<path d="M1446 2319 c-64 -38 -91 -95 -91 -194 0 -94 19 -142 73 -183 93 -71
209 12 217 157 6 100 -33 192 -93 220 -29 14 -81 14 -106 0z m94 -34 c40 -21
62 -66 68 -142 11 -146 -81 -239 -167 -167 -94 78 -51 323 57 324 7 0 26 -7
42 -15z"/>
<path d="M854 2408 l-42 -10 -116 -264 c-64 -145 -116 -271 -116 -279 0 -35
33 -145 44 -145 6 0 71 16 145 35 101 26 137 32 142 23 4 -7 13 -40 20 -75 9
-46 17 -62 26 -59 8 3 42 13 76 21 34 9 67 18 73 20 8 2 6 23 -7 72 -11 37
-19 71 -19 75 0 4 20 10 45 14 25 3 45 9 45 13 0 3 -7 39 -17 79 -19 80 -10
75 -88 56 -16 -4 -26 -2 -29 7 -2 8 -28 107 -57 222 -41 163 -56 207 -68 206
-9 -1 -35 -6 -57 -11z m55 -65 c6 -16 12 -40 15 -54 12 -74 79 -306 93 -321 8
-9 31 -18 51 -20 30 -2 38 -8 46 -31 9 -25 6 -30 -28 -58 l-37 -32 6 -62 c7
-59 6 -62 -16 -68 -53 -14 -68 -9 -78 29 -12 45 -47 84 -75 84 -12 0 -62 -11
-111 -25 -119 -33 -130 -32 -144 6 -19 54 -13 74 64 252 140 318 144 326 186
327 9 0 22 -12 28 -27z"/>
<path d="M819 2131 c-27 -21 -99 -173 -99 -209 0 -36 30 -51 80 -42 114 22
131 45 105 150 -10 40 -27 83 -39 97 l-21 25 -26 -21z m63 -192 c-4 -3 -29
-11 -57 -17 -27 -6 -58 -14 -67 -17 -14 -5 -8 14 23 87 23 51 46 104 51 118 9
22 13 14 33 -70 13 -52 21 -98 17 -101z"/>
<path d="M2065 2213 l-210 -198 -12 -75 c-6 -41 -10 -76 -8 -78 2 -2 66 -14
143 -25 77 -12 143 -25 146 -28 4 -3 0 -38 -7 -77 l-14 -70 24 -5 c18 -3 23 0
23 18 0 35 53 98 103 123 122 61 298 26 365 -72 26 -38 29 -103 7 -146 -51
-98 -231 -142 -352 -86 -42 20 -59 23 -85 16 -39 -12 -41 -10 -28 25 7 19 7
38 -1 66 -7 22 -14 37 -17 35 -2 -3 1 -20 7 -39 10 -28 9 -42 -3 -71 -17 -40
-11 -43 44 -27 17 6 37 1 65 -13 33 -17 58 -21 140 -21 85 0 107 4 148 24 56
27 102 84 112 137 15 83 -74 183 -185 206 -58 12 -59 12 -53 42 3 17 6 35 7
41 0 5 -18 12 -41 15 -24 4 -45 9 -48 12 -3 3 11 105 31 227 20 123 34 224 32
226 -2 2 -30 6 -63 9 l-60 6 -210 -197z m278 91 c-1 -33 -11 -122 -23 -198
-12 -75 -19 -148 -16 -161 4 -14 20 -32 36 -40 40 -21 38 -33 -7 -41 -41 -7
-91 -29 -135 -58 -26 -17 -27 -17 -43 8 -19 29 -46 38 -177 61 -96 17 -98 17
-98 44 0 64 21 91 217 272 164 152 198 180 221 177 26 -3 27 -5 25 -64z"/>
<path d="M2118 2123 c-114 -105 -125 -124 -90 -156 20 -19 116 -40 142 -32 25
8 47 54 59 127 10 59 9 71 -5 93 -9 14 -22 25 -30 25 -7 0 -41 -26 -76 -57z
m74 -66 c-13 -76 -20 -96 -31 -92 -8 3 -41 8 -73 12 -32 3 -58 8 -58 10 0 5
174 172 177 169 1 -1 -6 -45 -15 -99z"/>
<path d="M500 2389 c0 -7 -9 -9 -24 -5 -20 5 -25 1 -30 -19 -4 -14 -11 -23
-16 -20 -5 3 -12 0 -16 -6 -3 -6 -1 -15 6 -19 7 -5 10 -17 7 -30 -4 -16 0 -23
18 -30 12 -5 25 -15 28 -22 3 -10 8 -11 25 -1 12 7 28 10 37 7 9 -4 15 -1 15
9 0 8 10 22 23 30 16 12 19 18 9 25 -6 4 -11 20 -10 35 6 69 138 32 138 -38 0
-14 -10 -39 -21 -54 -20 -28 -19 -51 2 -51 5 0 15 12 22 28 6 15 16 30 22 34
7 5 7 8 0 8 -6 0 -12 15 -13 33 -4 66 -81 105 -148 75 -22 -10 -28 -10 -39 5
-14 19 -35 23 -35 6z m31 -55 c17 -21 0 -49 -32 -49 -24 0 -36 23 -25 51 7 19
40 18 57 -2z"/>
<path d="M480 2316 c0 -15 24 -28 34 -19 13 14 5 33 -14 33 -11 0 -20 -6 -20
-14z"/>
<path d="M2001 1815 c0 -5 -21 -10 -45 -10 -48 0 -96 -33 -96 -66 0 -10 -4
-20 -9 -24 -5 -3 -70 5 -143 19 -73 13 -164 27 -203 30 -38 3 -81 8 -95 11
-22 5 -22 4 -5 -4 19 -10 -75 -7 -166 4 -41 5 -40 6 -54 -110 l-6 -50 14 35
c8 19 18 49 23 65 l9 30 110 6 c82 4 133 1 200 -12 197 -38 261 -49 287 -49
15 0 30 -5 33 -10 4 -6 11 -8 16 -4 11 7 158 -43 177 -61 10 -9 9 -21 -4 -59
-13 -38 -14 -53 -5 -68 6 -10 9 -31 5 -46 -4 -19 -3 -23 4 -13 7 10 14 11 31
2 11 -7 21 -13 21 -15 0 -8 -49 -156 -65 -193 -12 -29 -23 -43 -36 -43 -10 0
-19 6 -19 13 -1 6 -8 0 -16 -15 -8 -16 -18 -28 -23 -28 -4 0 -16 -18 -26 -39
-18 -40 -52 -61 -100 -61 -11 0 -30 -6 -40 -14 -13 -10 -28 -11 -49 -5 -46 13
-98 11 -93 -3 2 -8 24 -13 59 -13 l55 0 -11 -27 c-7 -19 -18 -28 -33 -28 -23
0 -73 -56 -73 -81 1 -8 8 0 16 16 9 17 23 36 32 43 18 14 56 16 47 2 -9 -15 6
-60 21 -60 16 0 20 55 4 65 -17 10 -11 32 16 64 20 24 34 31 63 31 20 0 48 -8
61 -17 24 -17 25 -16 10 2 -14 17 -13 18 2 12 14 -5 21 4 33 48 l16 54 46 3
45 3 49 140 c27 77 49 141 49 142 0 2 -19 15 -42 29 -24 15 -44 27 -45 28 -1
1 8 36 21 78 l24 76 -87 26 c-47 14 -101 29 -118 32 -38 8 -38 6 -17 49 26 56
108 70 129 22 12 -27 55 -36 55 -12 0 8 -11 20 -25 27 -13 6 -26 18 -28 27 -3
9 -5 12 -6 6z"/>
<path d="M1176 1801 c-2 -3 -7 -44 -10 -91 l-5 -85 12 80 12 80 90 -2 c77 -1
83 0 40 7 -91 15 -135 18 -139 11z"/>
<path d="M2210 1645 c0 -43 1 -45 30 -45 17 0 30 5 30 10 0 6 -9 10 -20 10
-25 0 -26 17 -2 23 16 4 16 5 0 6 -25 1 -23 21 2 21 11 0 20 5 20 10 0 6 -13
10 -30 10 -29 0 -30 -2 -30 -45z"/>
<path d="M2280 1645 c0 -25 5 -45 10 -45 6 0 10 8 10 18 1 16 1 16 14 0 19
-25 22 -23 23 19 1 39 -9 53 -39 53 -15 0 -18 -9 -18 -45z"/>
<path d="M2359 1685 c-4 -23 -1 -76 4 -82 4 -3 7 1 7 10 0 21 19 22 26 2 4 -8
9 -15 13 -15 10 0 8 61 -2 78 -8 11 -46 17 -48 7z"/>
<path d="M2442 1678 c-30 -30 -2 -86 37 -73 29 9 36 42 15 66 -20 22 -35 24
-52 7z m46 -31 c4 -21 -27 -35 -38 -17 -12 19 0 42 19 38 9 -2 17 -11 19 -21z"/>
<path d="M2520 1645 c0 -26 5 -45 11 -45 6 0 9 7 5 15 -3 8 -1 15 5 15 5 0 12
-7 15 -15 4 -8 13 -15 21 -15 12 0 13 3 5 13 -6 7 -8 23 -5 36 6 25 -9 41 -39
41 -15 0 -18 -9 -18 -45z"/>
<path d="M1866 1653 c-11 -3 -24 -10 -30 -17 -14 -14 -17 -66 -4 -66 6 0 17
-8 24 -17 9 -12 13 -14 14 -5 0 9 7 11 20 7 14 -5 20 -2 20 9 0 9 4 16 10 16
15 0 7 42 -12 62 -10 10 -19 17 -20 17 -2 -1 -12 -4 -22 -6z m32 -46 c4 -20
-25 -34 -40 -19 -15 15 -1 44 19 40 10 -2 19 -11 21 -21z"/>
<path d="M1093 1608 l-43 -9 0 -139 c0 -81 -4 -141 -10 -145 -6 -3 -7 1 -4 9
4 10 1 16 -9 16 -9 0 -22 2 -29 5 -9 4 -20 -7 -31 -30 -28 -58 -87 -44 -87 21
0 29 -3 32 -36 36 l-36 4 4 -55 c4 -46 10 -59 37 -83 57 -51 155 -30 181 38
l9 23 43 -17 42 -18 -3 -56 -2 -56 43 -5 c24 -4 89 -12 146 -18 56 -7 102 -16
102 -21 0 -4 19 -7 43 -7 l42 1 -36 7 c-21 4 -44 14 -52 23 -10 10 -53 20
-114 27 -143 18 -143 18 -143 54 0 38 -30 106 -44 101 -26 -9 -31 15 -28 129
3 105 6 118 24 128 14 7 23 7 34 -2 11 -9 14 -8 14 4 0 8 3 22 6 31 7 18 0 18
-63 4z m-94 -328 c-19 -25 -49 -47 -49 -36 0 7 55 65 63 66 4 0 -2 -13 -14
-30z m-84 -30 l30 -10 -34 5 c-32 5 -60 28 -60 50 -1 6 7 0 17 -13 10 -12 31
-27 47 -32z"/>
<path d="M1256 1499 c-85 -78 -51 -214 58 -235 47 -8 78 0 115 32 60 50 60
142 1 199 -23 22 -41 29 -84 33 -50 4 -56 2 -90 -29z m52 -26 c-5 -26 -38 -29
-38 -4 0 15 6 21 21 21 14 0 19 -5 17 -17z m122 -23 c0 -11 -7 -20 -15 -20 -9
0 -18 -6 -21 -14 -7 -18 -34 -9 -34 10 0 8 9 14 20 14 11 0 20 7 20 15 0 8 7
15 15 15 8 0 15 -9 15 -20z m-100 -20 c0 -11 7 -20 15 -20 8 0 15 -6 15 -14 0
-8 7 -16 15 -20 18 -6 9 -36 -11 -36 -8 0 -14 9 -14 20 0 11 -7 20 -15 20 -8
0 -15 -7 -15 -15 0 -8 -6 -15 -14 -15 -8 0 -16 -7 -20 -15 -6 -18 -36 -9 -36
11 0 8 7 14 15 14 9 0 18 7 21 15 4 8 12 15 20 15 8 0 14 7 14 15 0 8 -7 15
-15 15 -9 0 -12 6 -9 15 9 22 34 18 34 -5z m-61 -14 c10 -11 8 -16 -9 -21 -26
-8 -35 -1 -27 20 8 19 21 19 36 1z m175 -25 c4 -5 3 -16 0 -25 -5 -13 -9 -14
-20 -5 -8 6 -14 18 -14 25 0 16 26 19 34 5z m-34 -71 c0 -22 -1 -23 -24 -14
-18 7 -10 34 10 34 8 0 14 -9 14 -20z m-72 -13 c2 -12 -3 -17 -17 -17 -23 0
-24 1 -15 25 8 19 28 15 32 -8z"/>
<path d="M1720 1488 c-25 -13 -55 -38 -67 -57 -34 -51 -28 -56 14 -10 46 51
81 69 132 69 53 0 81 -12 121 -52 19 -18 29 -24 23 -13 -16 30 -44 52 -86 70
-50 21 -85 19 -137 -7z"/>
<path d="M1745 1460 c-22 -11 -46 -29 -53 -40 -11 -17 -5 -16 41 10 30 16 66
30 81 30 16 0 25 4 21 10 -10 16 -46 12 -90 -10z"/>
<path d="M1660 1329 c0 -72 64 -139 133 -139 44 0 94 28 118 67 12 19 20 36
18 38 -2 2 -30 10 -61 18 l-57 15 -7 -44 c-7 -46 -10 -49 -33 -35 -11 7 -11
15 -2 41 16 46 15 47 -26 54 -21 3 -48 9 -60 12 -21 6 -23 3 -23 -27z m78 -41
c3 -36 3 -37 -22 -25 -27 12 -31 23 -20 52 12 29 38 12 42 -27z m132 -16 c0
-18 -32 -52 -50 -52 -15 0 -2 41 17 56 24 18 33 17 33 -4z"/>
<path d="M490 1318 c-11 -18 -20 -46 -20 -61 0 -15 -7 -41 -14 -56 -8 -15 -18
-51 -22 -78 l-6 -51 -35 67 c-20 37 -48 76 -64 87 -28 18 -47 19 -41 0 1 -4
-3 -15 -10 -24 -10 -12 -10 -16 0 -19 6 -3 12 -13 12 -24 0 -23 18 -25 26 -4
12 30 43 17 53 -22 6 -21 22 -55 36 -75 14 -20 25 -43 25 -49 0 -7 -13 8 -29
33 -50 78 -68 74 -30 -7 25 -52 47 -67 91 -63 34 3 60 36 74 93 l7 30 -21 -19
c-12 -10 -29 -36 -38 -57 -12 -25 -22 -35 -32 -32 -12 5 -14 21 -9 82 8 116
50 212 80 182 21 -21 40 -13 33 14 -4 14 -2 25 4 25 18 0 10 22 -10 27 -11 3
-20 12 -20 19 0 24 -20 15 -40 -18z"/>
<path d="M557 1220 c-15 -12 -32 -31 -39 -44 -7 -13 -20 -37 -30 -53 -9 -16
-19 -47 -22 -68 l-6 -40 13 40 c32 94 69 134 93 101 14 -20 34 -21 34 -1 0 8
5 15 10 15 6 0 10 7 10 15 0 8 -5 15 -11 15 -6 0 -9 9 -6 20 7 26 -13 26 -46
0z"/>
<path d="M884 1185 c-4 -9 -4 -49 0 -88 12 -135 84 -227 191 -244 54 -9 42 14
-19 38 -93 35 -130 93 -142 222 -7 77 -18 104 -30 72z"/>
<path d="M1645 1099 c-25 -9 -12 -14 69 -29 80 -14 103 -13 89 1 -16 16 -134
37 -158 28z"/>
<path d="M1463 1083 c32 -2 81 -2 110 0 29 2 3 3 -58 3 -60 0 -84 -1 -52 -3z"/>
<path d="M2062 1044 c-52 -34 -82 -43 -82 -24 0 19 -28 10 -33 -11 -4 -14 -11
-20 -21 -16 -8 3 -20 -1 -26 -9 -9 -10 -9 -14 -1 -14 16 0 14 -16 -4 -34 -21
-20 -19 -33 6 -39 16 -4 20 -11 16 -26 -5 -22 1 -25 41 -21 12 1 22 -3 22 -8
0 -9 24 -22 103 -53 27 -11 46 -15 43 -11 -3 5 -27 17 -53 27 -26 10 -52 21
-57 26 -13 11 13 40 33 37 12 -2 15 4 13 22 -1 14 4 30 13 36 15 11 14 14 -6
33 -36 34 -31 58 18 86 41 24 52 36 36 34 -5 0 -32 -16 -61 -35z m-52 -88 c6
-8 10 -25 8 -38 -4 -30 -46 -38 -65 -12 -17 23 -16 29 3 48 19 20 38 20 54 2z"/>
<path d="M1960 930 c0 -16 5 -21 23 -18 12 2 22 10 22 18 0 8 -10 16 -22 18
-18 3 -23 -2 -23 -18z"/>
<path d="M2588 1073 c17 -2 47 -2 65 0 17 2 3 4 -33 4 -36 0 -50 -2 -32 -4z"/>
<path d="M1410 1055 c0 -12 18 -15 105 -15 87 0 105 3 105 15 0 12 -18 15
-105 15 -87 0 -105 -3 -105 -15z m158 -2 c-26 -2 -71 -2 -100 0 -29 2 -8 3 47
3 55 0 79 -1 53 -3z"/>
<path d="M1228 1033 c-43 -4 -48 -7 -48 -28 0 -18 -8 -26 -33 -34 l-33 -11 13
-73 c18 -106 17 -126 -9 -137 -19 -8 -17 -9 10 -4 22 4 41 0 57 -10 14 -9 25
-12 25 -6 0 5 -3 10 -8 10 -9 0 -17 89 -17 181 1 90 10 99 99 100 39 1 82 5
96 9 26 8 -60 10 -152 3z m-54 -168 c5 -36 4 -46 -3 -35 -10 13 -16 99 -7 89
2 -2 6 -26 10 -54z"/>
<path d="M1804 1004 c22 -21 20 -41 -4 -49 -11 -3 -20 -11 -20 -17 0 -6 7 -7
18 -3 9 4 29 10 45 13 35 6 43 19 17 27 -11 3 -20 15 -20 26 0 14 -7 19 -26
19 -23 0 -24 -1 -10 -16z"/>
<path d="M1217 1003 c-14 -13 -7 -21 17 -19 13 0 22 5 19 10 -3 4 5 5 17 1 15
-5 20 -4 16 4 -8 12 -58 15 -69 4z"/>
<path d="M2080 980 c-24 -8 -24 -8 5 -8 17 0 44 4 60 8 l30 8 -35 0 c-19 0
-46 -4 -60 -8z"/>
<path d="M386 959 c-2 -8 -9 -57 -16 -109 -6 -52 -13 -107 -16 -122 l-6 -28
319 -2 c299 -3 318 -4 321 -21 6 -31 36 -53 67 -51 17 1 29 7 27 13 -1 6 5 14
13 17 10 4 13 13 10 25 -6 17 -1 19 44 19 48 0 50 -1 48 -27 -1 -19 3 -28 16
-31 16 -3 18 2 16 33 -5 48 28 77 80 73 35 -3 36 -4 39 -50 2 -27 8 -48 14
-48 7 0 8 13 5 35 -7 42 7 38 28 -8 11 -25 13 -26 9 -7 -3 14 -14 36 -23 50
-11 15 -20 54 -25 99 -3 41 -9 77 -11 80 -13 12 -15 -12 -7 -75 l8 -69 -41 3
c-33 3 -48 -2 -74 -23 -28 -24 -38 -27 -88 -23 -36 3 -60 11 -68 21 -13 18
-55 12 -68 -10 -6 -10 -54 -13 -226 -13 -219 0 -219 0 -224 23 -3 12 -13 70
-23 130 -9 59 -20 107 -24 107 -16 0 -17 -29 -3 -109 8 -46 13 -96 11 -110 -3
-25 -5 -26 -62 -24 -33 2 -62 5 -64 8 -3 3 0 53 7 111 9 75 10 109 2 117 -7 7
-12 6 -15 -4z m690 -270 c3 -6 -1 -18 -9 -27 -13 -13 -19 -13 -31 -2 -9 7 -16
19 -16 26 0 17 46 19 56 3z"/>
<path d="M2107 936 c-4 -9 8 -17 36 -26 30 -9 61 -32 109 -81 60 -63 88 -82
88 -61 0 12 -73 98 -107 126 -30 25 -92 56 -112 56 -5 0 -11 -6 -14 -14z"/>
<path d="M1390 886 c23 -8 41 -9 54 -3 14 7 21 5 28 -7 5 -9 14 -16 21 -16 8
0 7 3 -2 9 -7 5 -10 14 -7 20 5 8 -13 11 -61 10 -67 0 -67 0 -33 -13z"/>
<path d="M1663 878 c3 -45 -15 -193 -25 -205 -6 -7 -26 -13 -45 -13 l-34 0 21
22 c42 45 19 106 -53 136 -26 11 -28 11 -22 -8 3 -11 2 -20 -3 -20 -5 0 -14
-11 -20 -25 -8 -17 -17 -23 -29 -19 -16 5 -16 4 -3 -8 8 -7 23 -25 33 -40 10
-16 25 -29 35 -30 9 -1 -10 -4 -43 -8 -48 -5 -35 -7 66 -8 l126 -2 7 73 c3 39
9 96 13 125 5 43 3 52 -10 52 -10 0 -15 -8 -14 -22z m-89 -110 c17 -17 13 -42
-10 -66 -27 -27 -90 10 -77 45 16 41 56 51 87 21z"/>
<path d="M1876 881 c-3 -5 -13 -62 -21 -128 -9 -65 -20 -125 -25 -134 -10 -19
-4 -29 17 -29 8 0 13 12 13 33 0 80 -12 75 215 76 l203 1 -5 -39 c-3 -21 0
-55 6 -74 l12 -36 34 21 c30 17 33 23 24 40 -15 28 -3 64 23 72 17 4 30 -1 49
-23 26 -28 27 -28 55 -12 16 9 31 17 32 18 2 1 -6 15 -19 32 -46 62 -118 74
-181 30 -23 -17 -47 -19 -233 -19 l-207 0 5 23 c4 12 9 52 13 90 6 62 3 80
-10 58z m498 -168 c-28 -5 -55 -35 -57 -62 -1 -11 -5 -21 -10 -21 -13 0 2 52
20 73 9 9 28 16 42 16 22 -2 23 -2 5 -6z"/>
<path d="M1422 813 c2 -10 10 -18 18 -18 8 0 16 8 18 18 2 12 -3 17 -18 17
-15 0 -20 -5 -18 -17z"/>
<path d="M1924 822 c9 -15 96 -75 101 -70 2 2 -22 21 -52 42 -31 22 -53 34
-49 28z"/>
<path d="M2548 703 c34 -2 88 -2 120 0 31 2 3 3 -63 3 -66 0 -92 -1 -57 -3z"/>
<path d="M1683 633 c3 -5 24 -18 47 -28 45 -20 51 -32 18 -37 -36 -5 -32 -25
7 -30 43 -5 45 -3 45 37 0 28 -4 32 -42 42 -24 7 -52 15 -62 19 -12 5 -17 4
-13 -3z"/>
<path d="M842 606 c-51 -12 -93 -26 -93 -31 1 -16 93 -279 102 -289 8 -9 229
41 229 52 0 31 -46 256 -54 268 -18 24 -83 24 -184 0z m132 -13 c16 -53 56
-246 52 -250 -2 -2 -19 -7 -38 -9 -18 -3 -51 -9 -73 -14 -28 -6 -42 -5 -47 3
-12 20 -78 207 -78 222 0 9 22 20 58 30 31 8 68 19 82 24 37 13 38 13 44 -6z
m32 -41 c2 -9 5 -33 8 -52 4 -24 3 -29 -3 -15 -12 30 -24 101 -15 92 4 -4 9
-15 10 -25z"/>
<path d="M1216 588 c4 -24 9 -45 11 -48 2 -2 22 -3 43 -1 31 2 40 -1 40 -13 0
-14 25 -16 205 -16 159 0 203 3 200 13 -4 9 -51 11 -197 9 -166 -2 -194 -1
-204 13 -7 9 -22 18 -35 20 -25 5 -39 21 -39 48 0 9 -7 17 -15 17 -12 0 -14
-8 -9 -42z"/>
<path d="M1994 623 c-17 -3 -23 -20 -43 -127 -12 -68 -25 -132 -27 -143 -5
-18 6 -23 110 -48 64 -15 118 -26 120 -24 2 2 12 31 24 64 11 33 34 98 51 144
17 47 28 87 26 89 -8 8 -200 52 -220 51 -11 -1 -29 -4 -41 -6z m213 -66 c9 -9
4 -34 -21 -107 -41 -121 -53 -142 -74 -136 -9 2 -43 10 -74 17 -50 10 -58 15
-58 35 0 12 -3 31 -6 41 -4 13 -3 14 4 5 7 -10 11 -5 16 19 3 18 2 35 -3 38
-6 4 -6 24 -1 51 5 25 9 48 10 53 0 4 4 7 9 7 6 0 6 -12 0 -32 -5 -18 -9 -42
-8 -53 0 -11 7 6 15 38 8 33 16 62 19 66 5 10 157 -28 172 -42z"/>
<path d="M1284 486 c-6 -16 -87 -40 -121 -37 -24 2 -28 -6 -17 -33 8 -21 31
-20 43 1 5 10 12 15 16 11 9 -9 65 12 65 24 0 5 7 2 16 -7 9 -9 24 -15 33 -13
22 4 27 38 6 38 -11 0 -15 5 -11 15 3 9 0 15 -10 15 -8 0 -17 -6 -20 -14z"/>
<path d="M1423 493 c48 -2 125 -2 170 0 45 1 6 3 -88 3 -93 0 -130 -2 -82 -3z"/>
<path d="M1700 479 c0 -17 -4 -19 -17 -13 -27 13 -333 17 -333 4 0 -6 52 -10
151 -10 123 0 153 -3 166 -16 9 -9 22 -12 32 -8 19 8 25 8 74 -2 23 -4 37 -3
37 4 0 12 -58 34 -70 27 -5 -3 -11 4 -15 15 -8 26 -25 26 -25 -1z"/>
<path d="M1826 444 c-12 -32 -7 -47 16 -41 12 3 29 2 39 -4 12 -6 20 -5 24 2
9 14 2 20 -24 22 -11 1 -21 7 -21 13 0 18 -28 25 -34 8z"/>
<path d="M1108 423 c-22 -5 -23 -19 -4 -26 8 -3 20 0 26 8 13 15 3 23 -22 18z"/>
</g>
</svg>
