<?xml version="1.0" standalone="no"?>
<!DOCTYPE svg PUBLIC "-//W3C//DTD SVG 20010904//EN"
 "http://www.w3.org/TR/2001/REC-SVG-20010904/DTD/svg10.dtd">
<svg version="1.0" xmlns="http://www.w3.org/2000/svg"
 width="300.000000pt" height="240.000000pt" viewBox="0 0 300.000000 240.000000"
 preserveAspectRatio="xMidYMid meet">
<metadata>
Created by potrace 1.10, written by Peter Selinger 2001-2011
</metadata>
<g transform="translate(0.000000,240.000000) scale(0.100000,-0.100000)"
fill="#000000" stroke="none">
<path d="M1493 2170 c-35 -14 -54 -52 -47 -94 5 -35 5 -36 -15 -24 -12 7 -21
16 -21 20 0 12 -57 38 -84 38 -39 0 -57 -11 -71 -42 -21 -51 -7 -78 94 -180
103 -104 136 -122 180 -97 41 23 58 62 44 100 -7 18 -11 34 -9 36 2 2 35 -28
75 -67 71 -71 90 -101 51 -80 -32 17 -85 -4 -103 -42 -17 -36 -11 -61 28 -113
51 -66 39 -144 -28 -185 -43 -26 -87 -25 -128 3 -19 13 -109 98 -201 190 -198
197 -230 216 -283 162 -51 -50 -30 -90 123 -243 43 -44 77 -70 84 -66 7 4 8 3
4 -4 -7 -12 104 -129 164 -173 48 -35 117 -59 172 -59 51 0 143 27 172 50 77
62 116 136 116 219 0 30 2 52 5 49 11 -10 7 -152 -4 -156 -6 -2 -11 -12 -11
-22 0 -10 -3 -20 -7 -22 -5 -1 -20 -20 -35 -40 -25 -33 -131 -97 -150 -90 -5
1 -8 -3 -8 -9 0 -7 -8 -17 -17 -24 -12 -9 -18 -27 -18 -54 0 -88 73 -103 201
-40 111 55 202 173 225 291 7 35 13 65 15 67 4 5 34 -26 34 -36 1 -16 38 -53
54 -53 8 0 17 -4 21 -9 10 -17 64 22 81 58 14 29 16 54 11 142 -6 99 -22 168
-60 249 -41 88 -251 313 -302 322 -53 11 -114 -56 -101 -108 5 -18 2 -21 -14
-17 -12 3 -19 8 -16 11 6 6 -72 81 -128 123 -41 30 -57 34 -93 19z m232 -192
c186 -189 221 -241 246 -366 40 -210 -73 -419 -273 -499 -55 -23 -61 -23 -84
-8 -29 19 -32 65 -6 87 9 9 34 21 55 28 52 16 141 101 171 163 46 95 44 210
-7 312 -10 22 -95 117 -188 210 -99 100 -169 179 -169 190 0 27 29 55 59 55
20 0 62 -37 196 -172z m197 65 c82 -79 157 -171 186 -228 75 -148 97 -383 39
-404 -12 -5 -34 -4 -49 1 -27 10 -28 12 -28 83 0 179 -46 282 -195 435 -58 59
-105 114 -105 122 0 7 7 24 16 36 27 39 59 28 136 -45z m-480 -40 c102 -100
124 -133 108 -163 -11 -21 -40 -40 -61 -40 -6 0 -58 46 -115 102 -109 107
-124 136 -88 172 33 33 63 20 156 -71z m-188 -402 c213 -210 228 -220 302
-206 19 3 50 20 69 36 65 58 67 152 5 223 -33 37 -38 67 -14 90 38 39 93 9
139 -76 26 -46 30 -63 30 -128 0 -57 -6 -85 -22 -116 -48 -91 -136 -147 -233
-148 -104 0 -117 9 -347 237 -119 118 -213 219 -213 229 0 25 35 58 62 58 15
0 85 -63 222 -199z m753 27 c0 -7 2 -31 6 -53 l6 -40 -14 44 c-8 24 -12 48 -9
52 7 12 11 11 11 -3z"/>
<path d="M1086 1979 c-20 -16 -26 -29 -26 -58 0 -35 9 -47 126 -162 70 -68
138 -137 153 -153 14 -16 44 -45 65 -65 21 -20 45 -42 52 -49 7 -7 26 -15 43
-18 24 -5 35 -1 57 21 23 23 26 32 21 67 -5 38 -21 57 -184 217 -98 97 -191
186 -207 199 -37 27 -66 28 -100 1z m277 -207 c218 -219 218 -219 179 -264 -8
-10 -24 -18 -35 -18 -23 0 -413 380 -427 415 -8 20 4 54 24 67 32 22 59 1 259
-200z"/>
<path d="M902 1587 c-14 -15 -22 -36 -22 -60 0 -32 10 -47 85 -126 47 -50 85
-92 85 -94 0 -2 -11 -2 -25 1 -13 2 -36 1 -49 -2 -28 -7 -76 -68 -59 -73 7 -3
9 -11 6 -19 -8 -21 18 -55 112 -146 88 -84 134 -120 146 -112 4 2 9 -2 12 -9
6 -16 109 -67 136 -67 11 0 23 -4 26 -10 3 -5 24 -10 45 -10 21 0 41 -4 44 -9
6 -10 172 -7 221 4 31 6 77 20 130 38 44 15 154 89 202 136 85 82 155 221 122
242 -8 5 -10 9 -4 9 5 0 -6 11 -26 24 -20 14 -43 24 -51 22 -31 -4 -87 -51
-109 -91 -58 -105 -185 -184 -331 -205 -67 -10 -97 -11 -125 -2 -21 6 -48 14
-60 17 -31 8 -29 25 2 25 33 0 75 38 75 67 0 50 -24 77 -115 124 -31 16 -104
80 -195 171 -80 79 -156 152 -170 161 -35 24 -82 22 -108 -6z m244 -169 c136
-135 172 -166 235 -197 67 -32 74 -39 77 -68 2 -24 -2 -35 -20 -47 -22 -14
-29 -14 -74 3 -28 10 -68 30 -90 44 -58 40 -374 359 -374 379 0 23 47 58 68
51 9 -3 89 -77 178 -165z m947 -155 c13 -29 -2 -63 -61 -142 -178 -235 -499
-306 -780 -171 -69 33 -101 58 -192 146 -85 83 -110 113 -110 134 0 33 17 50
48 50 17 0 54 -29 126 -97 148 -143 257 -193 418 -193 178 0 335 86 426 233
20 32 45 63 56 67 30 11 56 0 69 -27z"/>
<path d="M292 692 c-35 -5 -62 -58 -62 -120 0 -100 43 -129 172 -117 45 3 91
13 102 20 18 12 24 12 40 -1 39 -28 106 -6 106 35 0 7 15 -2 33 -18 39 -37 56
-39 87 -6 l23 25 23 -25 c26 -28 50 -32 74 -10 9 8 39 19 66 24 32 6 56 18 71
35 28 33 30 33 30 -4 0 -35 28 -70 55 -70 11 0 26 13 36 30 20 35 28 37 42 10
29 -55 146 -66 196 -19 48 45 49 139 0 188 -22 22 -35 26 -79 25 -28 -1 -69
-4 -89 -7 -21 -3 -38 -1 -38 4 0 14 -117 11 -123 -3 -4 -10 -6 -10 -6 0 -1 9
-6 10 -20 3 -12 -7 -31 -7 -56 0 -21 6 -57 8 -79 5 -23 -4 -57 -7 -77 -9 -40
-3 -65 -19 -74 -48 -9 -27 -20 -24 -43 14 -16 28 -26 34 -53 34 -19 1 -59 4
-89 8 -31 4 -71 3 -91 -3 -24 -6 -42 -6 -54 0 -12 8 -20 7 -26 -3 -7 -11 -9
-11 -9 -1 0 12 -26 13 -88 4z m128 -47 c0 -12 -13 -15 -60 -15 l-60 0 0 -55 0
-55 60 0 c47 0 60 -3 60 -15 0 -13 -13 -15 -72 -13 l-73 3 -3 68 c-2 42 2 74
9 83 17 21 139 20 139 -1z m188 3 c25 -25 7 -98 -23 -98 -23 0 -18 -13 15 -35
16 -11 30 -23 30 -28 0 -14 -55 5 -80 28 -14 12 -33 25 -43 29 -32 11 -13 31
34 36 36 4 45 9 47 28 3 21 0 22 -52 22 l-56 0 0 -70 c0 -56 -3 -70 -15 -70
-12 0 -15 16 -15 85 l0 85 73 0 c43 0 78 -5 85 -12z m69 -15 c-8 -44 1 -53 54
-53 l49 0 0 40 c0 33 3 40 19 40 17 0 18 -6 14 -42 -6 -47 -20 -68 -49 -72
-14 -3 -18 -11 -17 -30 1 -20 -3 -26 -18 -26 -15 0 -19 7 -19 31 0 16 -4 28
-9 25 -5 -3 -20 4 -35 15 -20 16 -26 29 -26 60 0 33 3 39 21 39 18 0 20 -5 16
-27z m315 10 c22 -20 23 -70 1 -95 -21 -24 -113 -26 -113 -3 0 11 11 15 38 15
48 0 65 12 60 41 -3 22 -8 24 -53 24 l-50 0 -3 -67 c-2 -52 -6 -68 -17 -68
-12 0 -15 16 -15 73 0 43 5 78 12 85 18 18 118 15 140 -5z m198 2 c0 -11 -11
-15 -36 -15 l-36 0 4 -70 c3 -61 1 -70 -14 -70 -15 0 -18 10 -18 70 l0 70 -35
0 c-24 0 -35 5 -35 15 0 12 16 15 85 15 69 0 85 -3 85 -15z m180 -5 c14 -14
20 -33 20 -65 0 -63 -24 -85 -93 -85 -68 0 -92 22 -92 85 0 63 24 85 92 85 40
0 58 -5 73 -20z m-966 -59 c3 -5 -1 -14 -8 -21 -17 -13 -61 4 -51 21 8 11 52
12 59 0z"/>
<path d="M1252 621 c-9 -5 -12 -24 -10 -52 l3 -44 43 -3 c24 -2 50 2 58 9 17
14 19 70 2 87 -14 14 -76 16 -96 3z"/>
<path d="M1476 679 c-33 -26 -33 -42 2 -71 21 -17 31 -36 35 -67 10 -77 63
-107 94 -52 l17 28 24 -28 c27 -33 47 -36 73 -13 17 15 20 15 43 0 33 -21 138
-22 156 -1 16 19 54 19 70 0 12 -15 42 -18 198 -17 71 0 98 4 111 16 22 20 45
20 61 1 12 -14 23 -15 180 -17 100 0 122 2 143 17 17 12 24 12 48 -1 35 -17
73 -18 87 -1 6 7 11 28 11 47 0 19 3 52 7 73 7 42 -10 87 -33 87 -7 0 -13 5
-13 11 0 9 -101 8 -165 -1 -5 -1 -27 2 -49 6 -28 5 -40 3 -47 -7 -6 -9 -9 -10
-9 -2 0 13 -120 14 -120 1 0 -4 -6 -5 -13 -2 -8 3 -20 -2 -27 -11 -15 -18 -41
-20 -58 -2 -7 6 -23 13 -35 14 -12 0 -46 4 -75 9 -42 5 -56 4 -63 -7 -6 -9 -9
-10 -9 -2 0 9 -8 9 -31 1 -22 -8 -37 -7 -55 1 -35 15 -77 14 -124 -5 -36 -15
-43 -15 -73 -1 -24 11 -70 15 -184 15 -137 1 -154 -1 -177 -19z m174 -34 c0
-10 -11 -15 -35 -15 l-35 0 0 -70 c0 -56 -3 -70 -15 -70 -12 0 -15 14 -15 70
l0 70 -35 0 c-24 0 -35 5 -35 15 0 12 16 15 85 15 69 0 85 -3 85 -15z m185
-35 c0 -36 -4 -46 -23 -56 l-23 -12 33 -26 33 -26 -31 0 c-20 0 -39 9 -54 25
-13 14 -29 25 -37 25 -7 0 -13 9 -13 19 0 16 8 20 43 23 35 2 43 7 45 26 3 21
0 22 -53 22 l-57 0 4 -70 c3 -62 2 -70 -14 -70 -16 0 -18 10 -18 78 0 43 3 82
7 86 4 4 41 5 83 4 l75 -3 0 -45z m205 -35 c0 -69 -3 -85 -15 -85 -8 0 -15 9
-15 20 0 18 -7 20 -55 20 -48 0 -55 -2 -55 -20 0 -11 -7 -20 -15 -20 -12 0
-15 13 -15 60 0 51 4 65 25 85 20 21 34 25 85 25 l60 0 0 -85z m190 70 c0 -12
-13 -15 -60 -15 l-60 0 0 -55 0 -55 60 0 c47 0 60 -3 60 -15 0 -12 -14 -15
-70 -15 -80 0 -90 9 -90 85 0 76 10 85 90 85 56 0 70 -3 70 -15z m60 -70 c0
-69 -3 -85 -15 -85 -12 0 -15 16 -15 85 0 69 3 85 15 85 12 0 15 -16 15 -85z
m102 43 l-42 -42 42 -43 c42 -43 42 -43 16 -43 -19 0 -35 10 -54 35 -14 19
-33 35 -40 35 -8 0 -14 7 -14 15 0 8 6 15 13 15 7 0 28 16 47 35 19 19 43 35
54 35 17 0 14 -7 -22 -42z m218 27 c0 -12 -14 -15 -66 -15 l-65 0 3 -52 3 -53
63 -3 c46 -2 62 -7 62 -17 0 -12 -15 -15 -70 -15 -58 0 -71 3 -80 19 -11 22
-14 134 -3 144 3 4 39 7 80 7 58 0 73 -3 73 -15z m188 3 c29 -29 4 -98 -36
-98 -12 0 -4 -12 23 -35 l40 -35 -30 6 c-16 4 -39 14 -50 24 -11 10 -30 23
-42 29 -39 20 -28 40 25 43 40 3 47 6 50 26 3 21 0 22 -52 22 l-56 0 0 -70 c0
-56 -3 -70 -15 -70 -12 0 -15 16 -15 85 l0 85 73 0 c43 0 78 -5 85 -12z m-583
-73 c0 -5 -15 -11 -32 -13 -25 -3 -33 1 -33 13 0 12 8 16 33 13 17 -2 32 -7
32 -13z m385 0 c0 -11 -12 -15 -50 -15 -38 0 -50 4 -50 15 0 11 12 15 50 15
38 0 50 -4 50 -15z"/>
<path d="M1920 610 c-36 -36 -26 -50 35 -50 l55 0 0 35 c0 33 -2 35 -35 35
-22 0 -43 -8 -55 -20z"/>
<path d="M969 340 c-34 -33 -36 -51 -12 -91 19 -32 49 -45 82 -34 37 11 101
15 101 5 0 -18 40 -32 55 -20 10 8 19 8 34 0 16 -8 29 -6 58 8 37 18 71 20
139 6 26 -5 35 -1 53 22 40 50 9 104 -59 104 -20 0 -41 5 -48 12 -9 9 -17 9
-36 -2 -30 -16 -259 -18 -278 -3 -31 24 -60 22 -89 -7z m75 -6 c9 -3 16 -12
16 -20 0 -11 -4 -12 -19 -3 -26 17 -51 4 -51 -25 0 -28 26 -42 47 -25 15 13
28 6 18 -10 -9 -15 -58 -14 -73 1 -15 15 -15 61 0 76 13 13 37 15 62 6z m326
-34 c-7 -5 -11 -19 -8 -34 3 -15 1 -29 -3 -32 -5 -3 -9 11 -9 30 0 20 -5 36
-10 36 -6 0 -6 7 2 19 10 17 13 17 26 4 12 -12 13 -16 2 -23z m-240 9 c0 -4
-6 -12 -14 -18 -8 -7 -12 -20 -9 -30 3 -10 0 -22 -6 -25 -7 -5 -11 8 -11 36 0
37 3 44 20 44 11 0 20 -3 20 -7z m42 -16 l11 -28 10 28 c6 15 15 27 20 27 5 0
7 -6 4 -12 -43 -108 -54 -122 -55 -70 0 15 -3 39 -7 55 -4 15 -4 27 -1 27 4 0
12 -12 18 -27z m130 18 c4 0 10 -10 13 -21 8 -25 -10 -50 -36 -50 -11 0 -19
-7 -19 -15 0 -8 -4 -15 -10 -15 -5 0 -10 24 -10 53 0 51 1 53 28 51 15 -1 30
-2 34 -3z m162 -13 c21 -30 4 -60 -32 -56 -30 3 -42 39 -22 64 17 20 36 17 54
-8z"/>
<path d="M1262 278 c2 -12 10 -23 18 -23 22 0 19 39 -3 43 -15 3 -18 -1 -15
-20z"/>
<path d="M1416 291 c-9 -14 4 -41 19 -41 15 0 24 19 18 38 -5 14 -29 16 -37 3z"/>
<path d="M1539 351 c-21 -17 -22 -22 -11 -40 6 -11 12 -29 12 -38 1 -40 22
-51 88 -47 34 2 64 -1 67 -5 8 -14 383 -5 400 9 8 6 19 27 25 46 18 54 4 63
-88 61 -46 -1 -90 4 -110 12 -25 11 -35 11 -47 1 -23 -19 -213 -17 -252 3 -41
22 -56 21 -84 -2z m368 -37 c-5 -28 0 -30 25 -7 20 18 26 5 6 -15 -9 -9 -8
-16 5 -30 9 -10 14 -22 10 -26 -4 -4 -15 3 -25 16 -15 19 -18 20 -18 6 0 -10
-4 -18 -10 -18 -5 0 -10 25 -10 56 0 37 4 53 11 48 6 -3 9 -17 6 -30z m-287
16 c0 -5 -7 -10 -15 -10 -11 0 -15 -11 -15 -39 0 -22 -4 -43 -10 -46 -6 -4
-10 12 -10 39 0 39 -3 46 -20 46 -11 0 -20 5 -20 10 0 6 20 10 45 10 25 0 45
-4 45 -10z m60 -19 c3 -1 -3 -6 -12 -12 -10 -5 -18 -21 -18 -34 0 -13 -4 -27
-10 -30 -6 -4 -10 11 -10 38 0 44 5 48 50 38z m88 -35 l3 -37 -38 3 c-31 2
-39 7 -41 26 -5 32 16 53 47 49 22 -3 26 -9 29 -41z m76 38 c9 -3 16 -13 16
-22 0 -12 -3 -13 -12 -4 -18 18 -38 14 -38 -7 0 -26 17 -36 35 -21 12 10 15 9
15 -4 0 -11 -9 -16 -29 -16 -34 0 -48 27 -31 60 11 21 19 24 44 14z m190 -10
c24 -23 19 -34 -15 -34 -18 0 -28 -4 -24 -10 4 -6 16 -8 27 -4 14 4 18 2 14
-5 -4 -6 -18 -11 -31 -11 -18 0 -26 7 -31 25 -11 45 29 71 60 39z m86 7 c3 -1
-3 -6 -12 -12 -10 -5 -18 -21 -18 -34 0 -13 -4 -27 -10 -30 -6 -4 -10 11 -10
38 0 44 5 48 50 38z"/>
<path d="M1712 278 c2 -12 10 -23 18 -23 22 0 19 39 -3 43 -15 3 -18 -1 -15
-20z"/>
</g>
</svg>
